# Blender 3.6.5
# www.blender.org
mtllib Cylinder.mtl
o Cylinder
v 0.000000 -1.000000 -1.000000
v 0.000000 1.000000 -1.000000
v 0.587785 -1.000000 -0.809017
v 0.587785 1.000000 -0.809017
v 0.951057 -1.000000 -0.309017
v 0.951057 1.000000 -0.309017
v 0.951057 -1.000000 0.309017
v 0.951057 1.000000 0.309017
v 0.587785 -1.000000 0.809017
v 0.587785 1.000000 0.809017
v 0.000000 -1.000000 1.000000
v 0.000000 1.000000 1.000000
v -0.587785 -1.000000 0.809017
v -0.587785 1.000000 0.809017
v -0.951057 -1.000000 0.309017
v -0.951057 1.000000 0.309017
v -0.951057 -1.000000 -0.309017
v -0.951057 1.000000 -0.309017
v -0.587785 -1.000000 -0.809017
v -0.587785 1.000000 -0.809017
v -0.000000 1.000000 0.000000
v 0.000000 -1.000000 -0.000000
vn 0.3090 -0.0000 -0.9511
vn 0.8090 -0.0000 -0.5878
vn 1.0000 -0.0000 -0.0000
vn 0.8090 -0.0000 0.5878
vn 0.3090 -0.0000 0.9511
vn -0.3090 -0.0000 0.9511
vn -0.8090 -0.0000 0.5878
vn -1.0000 -0.0000 -0.0000
vn -0.0000 1.0000 -0.0000
vn -0.8090 -0.0000 -0.5878
vn -0.3090 -0.0000 -0.9511
vn -0.0000 -1.0000 -0.0000
vt 0.000120 0.000120
vt 0.323649 0.000120
vt 0.323649 0.100096
vt 0.000120 0.100096
vt 0.323649 0.200072
vt 0.000120 0.200072
vt 0.323649 0.300048
vt 0.000120 0.300048
vt 0.323649 0.400024
vt 0.000120 0.400024
vt 0.323649 0.500000
vt 0.000120 0.500000
vt 0.323649 0.599976
vt 0.000120 0.599976
vt 0.323649 0.699952
vt 0.000120 0.699952
vt 0.323649 0.799928
vt 0.000120 0.799928
vt 0.664787 0.572751
vt 0.606022 0.653633
vt 0.510940 0.522763
vt 0.323649 0.899904
vt 0.000120 0.899904
vt 0.323649 0.999880
vt 0.000120 0.999880
vt 0.664787 0.111897
vt 0.664787 0.211873
vt 0.510939 0.161885
vt 0.606022 0.391893
vt 0.664787 0.472775
vt 0.510940 0.684528
vt 0.415857 0.653633
vt 0.357092 0.572751
vt 0.357092 0.472775
vt 0.415857 0.391893
vt 0.510939 0.360998
vt 0.606022 0.031014
vt 0.510939 0.000120
vt 0.415857 0.031014
vt 0.357092 0.111897
vt 0.357092 0.211873
vt 0.606022 0.292755
vt 0.510939 0.323649
vt 0.415857 0.292755
s 0
f 1/1/1 2/2/1 4/3/1 3/4/1
f 3/4/2 4/3/2 6/5/2 5/6/2
f 5/6/3 6/5/3 8/7/3 7/8/3
f 7/8/4 8/7/4 10/9/4 9/10/4
f 9/10/5 10/9/5 12/11/5 11/12/5
f 11/12/6 12/11/6 14/13/6 13/14/6
f 13/14/7 14/13/7 16/15/7 15/16/7
f 15/16/8 16/15/8 18/17/8 17/18/8
f 4/19/9 2/20/9 21/21/9
f 17/18/10 18/17/10 20/22/10 19/23/10
f 19/23/11 20/22/11 2/24/11 1/25/11
f 17/26/12 19/27/12 22/28/12
f 8/29/9 6/30/9 21/21/9
f 6/30/9 4/19/9 21/21/9
f 2/20/9 20/31/9 21/21/9
f 20/31/9 18/32/9 21/21/9
f 18/32/9 16/33/9 21/21/9
f 16/33/9 14/34/9 21/21/9
f 14/34/9 12/35/9 21/21/9
f 12/35/9 10/36/9 21/21/9
f 10/36/9 8/29/9 21/21/9
f 15/37/12 17/26/12 22/28/12
f 13/38/12 15/37/12 22/28/12
f 11/39/12 13/38/12 22/28/12
f 9/40/12 11/39/12 22/28/12
f 7/41/12 9/40/12 22/28/12
f 1/42/12 3/43/12 22/28/12
f 5/44/12 7/41/12 22/28/12
f 3/43/12 5/44/12 22/28/12
f 19/27/12 1/42/12 22/28/12
